<?xml version="1.0" encoding="UTF-8" standalone="no"?>
<svg
   version="1.1"
   id="Layer_1"
   x="0px"
   y="0px"
   width="512.58362"
   viewBox="0 0 512.58362 512.53717"
   enable-background="new 0 0 538 538"
   xml:space="preserve"
   sodipodi:docname="aletheia-mobile.svg"
   height="512.53717"
   inkscape:version="1.3.2 (091e20ef0f, 2023-11-25)"
   xmlns:inkscape="http://www.inkscape.org/namespaces/inkscape"
   xmlns:sodipodi="http://sodipodi.sourceforge.net/DTD/sodipodi-0.dtd"
   xmlns="http://www.w3.org/2000/svg"
   xmlns:svg="http://www.w3.org/2000/svg"><defs
   id="defs16" /><sodipodi:namedview
   id="namedview16"
   pagecolor="#ffffff"
   bordercolor="#000000"
   borderopacity="0.25"
   inkscape:showpageshadow="2"
   inkscape:pageopacity="0.0"
   inkscape:pagecheckerboard="0"
   inkscape:deskcolor="#d1d1d1"
   inkscape:zoom="1.3847584"
   inkscape:cx="255.27919"
   inkscape:cy="255.27919"
   inkscape:window-width="1920"
   inkscape:window-height="995"
   inkscape:window-x="0"
   inkscape:window-y="0"
   inkscape:window-maximized="1"
   inkscape:current-layer="Layer_1" />

<path
   fill="#1bb4c6"
   opacity="1"
   stroke="none"
   d="M 84.550238,65.474105 C 98.72413,53.025275 113.61981,42.231021 129.73397,33.055407 c 15.34967,-8.740322 31.45023,-15.681333 48.22055,-21.056104 17.26683,-5.5338903 34.8782,-9.7859013 53.05009,-10.6817713 15.24137,-0.75139395 30.64606,-2.10900895 45.74869,-0.71287795 16.94907,1.56682695 33.98404,4.72476095 50.34555,9.41112825 15.99771,4.582171 31.55408,11.198366 46.64859,18.312616 17.74845,8.365086 33.67322,19.795834 48.7648,32.469819 20.69699,17.381454 38.04804,37.624122 52.10306,60.503693 15.85657,25.81229 26.63873,53.70447 32.94232,83.54097 5.01502,23.73711 5.87659,47.62685 4.33173,71.44316 -1.10913,17.09986 -4.73279,34.29416 -9.41052,50.83087 -4.48508,15.8559 -10.94504,31.31351 -18.04618,46.22763 -8.49972,17.8515 -19.9617,33.95761 -32.74783,49.17768 -17.38788,20.69772 -37.64706,38.03326 -60.51666,52.08764 -25.80625,15.85916 -53.71579,26.61011 -83.5546,32.91248 -23.74142,5.01452 -47.62961,5.86279 -71.44446,4.31756 -17.09694,-1.10937 -34.26727,-4.8106 -50.82454,-9.43389 -15.56083,-4.34504 -30.80737,-10.48963 -45.38186,-17.52186 -18.09064,-8.72872 -34.55692,-20.2521 -50.01648,-33.28836 C 69.281744,434.1705 51.910559,413.94476 37.876112,391.06335 22.041777,365.24747 11.271683,337.34506 4.9957372,307.4956 0.00341724,283.75137 -0.83320776,259.86914 0.67884324,236.04944 1.7543762,219.10628 5.2541432,202.0428 9.9347252,185.6803 14.556097,169.52476 21.214785,153.79909 28.451132,138.58467 36.80131,121.02843 47.62105,104.79277 60.775404,90.329269 68.407187,81.937957 76.442129,73.913306 84.550238,65.474105 M 472.29557,158.82605 C 457.171,125.34924 435.68177,96.627599 407.22242,73.402907 352.01316,28.34851 288.76645,10.763251 218.49328,21.585776 160.03505,30.588721 111.26666,58.44908 73.638243,104.214 27.686297,160.10226 10.423988,224.29996 22.191698,295.77124 c 9.214401,55.96381 35.759106,102.8764 78.852762,139.44284 58.10047,49.30014 125.40689,67.31009 200.4499,53.04675 59.36359,-11.2832 107.41409,-41.87442 143.66516,-90.06292 37.48367,-49.827 52.74097,-106.1846 46.30545,-168.33158 -2.53454,-24.47572 -8.92602,-47.87378 -19.1694,-71.04028 z"
   id="path2" />
<path
   fill="#002b36"
   opacity="1"
   stroke="none"
   d="m 472.42228,159.1842 c 10.11667,22.80835 16.50815,46.20641 19.04269,70.68213 6.43552,62.14698 -8.82178,118.50458 -46.30545,168.33158 -36.25107,48.1885 -84.30157,78.77972 -143.66516,90.06292 -75.04301,14.26334 -142.34943,-3.74661 -200.4499,-53.04675 C 57.950804,398.64764 31.406099,351.73505 22.191698,295.77124 10.423988,224.29996 27.686297,160.10226 73.638243,104.214 111.26666,58.44908 160.03505,30.588721 218.49328,21.585776 288.76645,10.763251 352.01316,28.34851 407.22242,73.402907 435.68177,96.627599 457.171,125.34924 472.42228,159.1842 M 273.02866,282.3923 c 5.73123,-9.23712 7.13239,-19.56805 7.48847,-30.12576 0.423,-12.54137 -0.007,-25.02312 -5.56043,-36.61678 -3.9393,-8.22384 -10.14703,-13.42096 -19.84653,-13.43389 -9.67071,-0.0129 -16.36836,4.87747 -19.77151,13.35746 -2.68436,6.68892 -4.55339,13.93814 -5.35835,21.09883 -1.58986,14.14284 -1.20496,28.35668 4.85061,41.62606 7.71117,16.89718 26.1415,19.06228 38.19774,4.09408 m -68.54977,21.23493 c 0,2.43097 0,4.86197 0,7.19034 4.04208,0 7.2671,0 10.6381,0 0,-20.25299 0.48317,-40.08674 -0.1668,-59.88324 -0.44675,-13.60665 -8.81516,-20.76583 -22.59031,-20.60488 -6.28547,0.0734 -12.54994,1.29936 -18.84127,1.77147 -3.42838,0.25726 -4.34217,1.82475 -4.31189,5.12485 0.14978,16.33188 0.0595,32.66586 0.0875,48.99902 0.002,1.2648 0.26372,2.52915 0.38088,3.58002 3.63949,0 6.86203,0 10.64007,0 0,-16.69174 0,-32.94138 0,-49.34013 3.50343,-0.42916 6.45584,-1.00942 9.42497,-1.11364 9.00072,-0.31596 13.70464,3.86875 14.54139,12.81162 0.21681,2.31726 0.1838,4.6622 0.18641,6.9945 0.0162,14.49991 0.01,28.99979 0.0109,44.47007 m -93.5724,-101.39429 c -2.0368,0.27028 -4.0736,0.54056 -6.3731,0.8457 0.5909,3.25371 1.05343,5.80062 1.50141,8.26737 8.9792,-0.0835 11.23793,1.35196 14.96621,9.2937 0.77748,1.65614 1.32524,3.43039 2.2027,5.02724 1.84946,3.36578 1.23877,6.24905 -0.30179,9.76585 -6.93481,15.83084 -13.44752,31.8475 -20.01748,47.83618 -0.83917,2.04221 -1.12167,4.31314 -1.67714,6.53855 9.90335,1.15264 9.90352,1.1527 12.52825,-7.42353 0.19472,-0.63626 0.34323,-1.29007 0.58289,-1.90872 4.78101,-12.34222 9.57228,-24.68048 14.36147,-37.01953 0.53105,0.11148 1.0621,0.22296 1.59314,0.33444 0.67717,1.66339 1.47346,3.28915 2.01208,4.99628 3.40228,10.78308 6.91109,21.53668 10.06215,32.39367 2.76079,9.51227 2.57431,9.57203 12.50217,8.97431 0.44752,-0.0269 0.87928,-0.31552 1.87024,-0.69177 -1.85085,-6.06125 -3.3935,-12.18421 -5.57817,-18.06882 -6.82995,-18.39694 -13.74904,-36.76433 -20.95049,-55.01816 -3.22275,-8.16887 -8.37033,-14.50894 -19.28454,-14.14276 m -24.939016,86.92682 c 1.971346,0.71481 3.942686,1.42963 6.929996,2.51285 0,-3.86582 1.2267,-8.51801 -0.24287,-9.64063 -3.60297,-2.75232 -3.85761,-6.0289 -3.90868,-9.63605 -0.12959,-9.15435 -0.0686,-18.31143 -0.073,-27.46743 -0.006,-12.3487 -0.001,-12.34868 -12.261669,-14.33419 -17.645096,-2.85754 -31.008854,4.57593 -34.664357,19.85146 -1.178798,4.92596 -1.519344,10.2695 -1.085578,15.32263 1.178123,13.72443 8.319648,22.83731 19.175914,25.02002 7.846711,1.57761 15.237328,0.12656 21.81881,-4.8562 1.345001,1.03339 2.514267,1.93176 4.311424,3.22754 M 466.67097,257.7402 c 1.5e-4,-4.32275 4.2e-4,-8.64547 4.5e-4,-12.96823 6e-5,-12.03872 0,-12.03872 -11.89544,-14.10217 -15.36271,-2.66489 -27.72577,2.45232 -33.02912,14.24359 -5.12909,11.40384 -4.79327,23.01325 0.8129,34.17975 3.98553,7.93841 10.8334,12.44464 19.72433,11.95724 6.07102,-0.33282 12.04694,-2.39993 18.65384,-3.81793 2.29941,1.1387 5.5842,2.76541 8.86902,4.39212 0.49243,-0.31091 0.98483,-0.62182 1.47727,-0.93274 -0.18659,-3.02847 0.78964,-7.31918 -0.82047,-8.80243 -2.70822,-2.49487 -3.58231,-5.01507 -3.67538,-8.18832 -0.14612,-4.98386 -0.089,-9.97372 -0.1174,-15.96088 m -138.14655,33.38727 c 5.59997,-1.13644 11.19998,-2.27289 17.2792,-3.50659 -1.2243,-3.7327 -2.08688,-6.36252 -3.04043,-9.26965 -1.87384,0.56247 -3.41651,1.07486 -4.98526,1.48812 -8.12949,2.14155 -16.34003,3.37992 -24.65064,1.22983 -3.90304,-1.00982 -7.11526,-2.93438 -7.08596,-7.7565 0.0286,-4.7156 3.09323,-6.94641 6.98477,-7.91388 3.34949,-0.83276 6.90817,-0.90393 10.38632,-1.11371 2.76132,-0.16656 5.54071,-0.0335 8.33173,-0.0335 0,-3.38642 0,-6.077 0,-8.53272 -6.2562,-0.51474 -12.08381,-0.72208 -17.81662,-1.57016 -3.32596,-0.492 -5.62329,-2.73236 -5.77472,-6.52347 -0.1539,-3.85312 2.06949,-5.75624 5.38409,-6.79808 1.104,-0.34701 2.26007,-0.80852 3.38043,-0.77812 7.5463,0.2048 15.08939,0.52788 23.07618,0.82933 0.2742,-1.29248 1.02111,-3.37897 1.0339,-5.46992 0.006,-1.06598 -1.12161,-2.86458 -2.04947,-3.10001 -11.16873,-2.83411 -22.41708,-3.759 -33.23505,1.19476 -9.15399,4.19179 -11.55056,15.31348 -5.16558,22.57517 1.07168,1.21884 2.51062,2.11477 4.05291,3.38479 -7.7561,4.54499 -11.19094,10.68845 -9.06945,18.827 2.02124,7.75385 8.29663,11.02957 15.61129,12.04273 5.40421,0.7485 10.9343,0.58813 17.35236,0.79461 m 36.24112,-50.88223 c 2.60406,0 5.20813,0 8.34131,0 0,2.44955 -0.0122,4.24121 0.002,6.03265 0.075,9.49225 -0.0865,18.99445 0.30371,28.47382 0.39627,9.62692 5.0084,15.29263 13.13651,16.18918 4.08029,0.4501 8.36163,0.2998 12.40661,-0.409 8.28751,-1.45221 8.65122,-2.45849 5.53971,-10.59997 -2.56693,0.6119 -5.12238,1.33203 -7.72135,1.82037 -8.62545,1.62067 -12.33853,-1.08899 -12.69934,-9.90366 -0.38116,-9.31262 -0.23736,-18.64712 -0.30191,-27.9722 -0.0283,-4.09997 -0.005,-8.20031 -0.005,-12.36601 -9.54172,0 -18.30713,0 -27.27804,0 0,2.97118 0,5.65987 0,8.73482 2.70376,0 5.00906,0 8.27554,0 M 60.284689,218.77273 c -3.957939,3.19501 -0.520195,4.51053 3.241226,7.85796 2.314041,-3.02518 4.886124,-5.92856 6.729119,-9.23794 1.720123,-3.08873 3.501144,-6.57653 3.631599,-9.95141 0.07544,-1.95172 -2.804268,-5.3116 -4.815636,-5.7106 -2.323394,-0.46089 -6.06665,0.96161 -7.46627,2.84787 -1.050476,1.4157 0.547249,4.87601 1.14608,7.38303 0.160972,0.67389 0.979805,1.19063 1.637199,1.93965 -1.299949,1.57428 -2.453048,2.97073 -4.103317,4.87144 M 188.7728,213.2048 c -1.59497,2.47919 -3.18995,4.95838 -4.97656,7.7354 2.28007,1.58748 4.14075,2.88297 6.39188,4.4503 4.9794,-6.25854 9.77807,-12.28993 14.79481,-18.5954 -3.0408,-2.08169 -5.48003,-3.75154 -8.30125,-5.6829 -2.61905,4.00343 -5.0661,7.74393 -7.90888,12.0926 z"
   id="path3" />
<path
   fill="#1ab2c4"
   opacity="1"
   stroke="none"
   d="m 272.8191,282.68817 c -11.84668,14.67233 -30.27701,12.50723 -37.98818,-4.38995 -6.05557,-13.26938 -6.44047,-27.48322 -4.85061,-41.62606 0.80496,-7.16069 2.67399,-14.40991 5.35835,-21.09883 3.40315,-8.47999 10.1008,-13.37037 19.77151,-13.35746 9.6995,0.0129 15.90723,5.21005 19.84653,13.43389 5.55347,11.59366 5.98343,24.07541 5.56043,36.61678 -0.35608,10.55771 -1.75724,20.88864 -7.69803,30.42163 m -9.41028,-3.89145 c 5.50418,-8.30087 6.0115,-17.58966 6.00003,-27.18683 -10.03989,0 -19.43597,0 -29.13316,0 0.18676,8.88813 0.58006,17.3689 4.85579,25.02545 4.25799,7.62482 11.18017,8.58371 18.27734,2.16138 m -22.27786,-47.03673 c -0.30141,3.36536 -0.60282,6.73072 -0.902,10.07134 10.21065,0 19.59621,0 29.21224,0 0.12759,-8.4722 -0.81976,-16.33464 -4.43128,-23.65427 -2.04538,-4.1454 -5.39056,-6.89462 -10.22073,-6.7971 -4.56943,0.0923 -8.03406,2.58223 -9.71088,6.71149 -1.67031,4.11318 -2.6109,8.52265 -3.94735,13.66854 z"
   id="path4" />
<path
   fill="#1ab1c3"
   opacity="1"
   stroke="none"
   d="m 204.47892,303.14203 c -10e-4,-14.98508 0.005,-29.48496 -0.011,-43.98487 -0.003,-2.3323 0.0304,-4.67724 -0.18641,-6.9945 -0.83675,-8.94287 -5.54067,-13.12758 -14.54139,-12.81162 -2.96913,0.10422 -5.92154,0.68448 -9.42497,1.11364 0,16.39875 0,32.64839 0,49.34013 -3.77804,0 -7.00058,0 -10.64007,0 -0.11716,-1.05087 -0.37871,-2.31522 -0.38088,-3.58002 -0.028,-16.33316 0.0623,-32.66714 -0.0875,-48.99902 -0.0303,-3.3001 0.88351,-4.86759 4.31189,-5.12485 6.29133,-0.47211 12.5558,-1.69803 18.84127,-1.77147 13.77515,-0.16095 22.14356,6.99823 22.59031,20.60488 0.64997,19.7965 0.1668,39.63025 0.1668,59.88324 -3.371,0 -6.59602,0 -10.6381,0 0,-2.32837 0,-4.75937 3e-5,-7.67554 z"
   id="path5" />
<path
   fill="#1ab1c3"
   opacity="1"
   stroke="none"
   d="m 111.34755,202.23202 c 10.47315,-0.36526 15.62073,5.97481 18.84348,14.14368 7.20145,18.25383 14.12054,36.62122 20.95049,55.01816 2.18467,5.88461 3.72732,12.00757 5.57817,18.06882 -0.99096,0.37625 -1.42272,0.66485 -1.87024,0.69177 -9.92786,0.59772 -9.74138,0.53796 -12.50217,-8.97431 -3.15106,-10.85699 -6.65987,-21.61059 -10.06215,-32.39367 -0.53862,-1.70713 -1.33491,-3.33289 -2.01208,-4.99628 -0.53104,-0.11148 -1.06209,-0.22296 -1.59314,-0.33444 -4.78919,12.33905 -9.58046,24.67731 -14.36147,37.01953 -0.23966,0.61865 -0.38817,1.27246 -0.58289,1.90872 -2.62473,8.57623 -2.6249,8.57617 -12.52825,7.42353 0.55547,-2.22541 0.83797,-4.49634 1.67714,-6.53855 6.56996,-15.98868 13.08267,-32.00534 20.01748,-47.83618 1.54056,-3.5168 2.15125,-6.40007 0.30179,-9.76585 -0.87746,-1.59685 -1.42522,-3.3711 -2.2027,-5.02724 -3.72828,-7.94174 -5.98701,-9.37723 -14.96621,-9.2937 -0.44798,-2.46675 -0.91051,-5.01366 -1.50141,-8.26737 2.2995,-0.30514 4.3363,-0.57542 6.81416,-0.84662 z"
   id="path6" />
<path
   fill="#1ab2c4"
   opacity="1"
   stroke="none"
   d="m 85.653524,288.96106 c -1.483207,-1.09708 -2.652473,-1.99545 -3.997474,-3.02884 -6.581482,4.98276 -13.972099,6.43381 -21.81881,4.8562 -10.856266,-2.18271 -17.997791,-11.29559 -19.175914,-25.02002 -0.433766,-5.05313 -0.09322,-10.39667 1.085578,-15.32263 3.655503,-15.27553 17.019261,-22.709 34.664357,-19.85146 12.260189,1.98551 12.255789,1.98549 12.261669,14.33419 0.004,9.156 -0.0566,18.31308 0.073,27.46743 0.0511,3.60715 0.30571,6.88373 3.90868,9.63605 1.46957,1.12262 0.24287,5.77481 0.24287,9.64063 -2.98731,-1.08322 -4.95865,-1.79804 -7.243946,-2.71155 M 78.037705,246.965 c -0.748672,-2.25693 -0.921089,-5.98035 -2.337852,-6.53705 -10.619286,-4.17279 -21.451691,1.93313 -23.345513,13.24817 -0.832527,4.97412 -0.778686,10.31561 0.03207,15.30178 1.907456,11.73105 12.492829,16.62732 22.88781,10.80454 1.448891,-0.81159 2.782074,-3.21988 2.823349,-4.92166 0.21772,-8.97702 0.0041,-17.96451 -0.05986,-27.89578 z"
   id="path7" />
<path
   fill="#1ab2c4"
   opacity="1"
   stroke="none"
   d="m 466.67069,258.24011 c 0.0287,5.48725 -0.0284,10.47711 0.11768,15.46097 0.0931,3.17325 0.96716,5.69345 3.67538,8.18832 1.61011,1.48325 0.63388,5.77396 0.82047,8.80243 -0.49244,0.31092 -0.98484,0.62183 -1.47727,0.93274 -3.28482,-1.62671 -6.56961,-3.25342 -8.86902,-4.39212 -6.6069,1.418 -12.58282,3.48511 -18.65384,3.81793 -8.89093,0.4874 -15.7388,-4.01883 -19.72433,-11.95724 -5.60617,-11.1665 -5.94199,-22.77591 -0.8129,-34.17975 5.30335,-11.79127 17.66641,-16.90848 33.02912,-14.24359 11.89544,2.06345 11.8955,2.06345 11.89544,14.10217 -3e-5,4.32276 -3e-4,8.64548 -7.3e-4,13.46814 m -31.37689,20.5697 c 6.02975,4.80408 12.34399,4.05542 18.58667,0.65409 1.14386,-0.62326 2.27585,-2.47785 2.28903,-3.77552 0.10629,-10.45214 0.0104,-20.90844 -0.21924,-31.35922 -0.03,-1.36453 -0.82178,-3.45825 -1.8526,-3.93533 -7.37109,-3.41141 -17.66186,0.17505 -21.67221,7.26422 -4.88113,8.62851 -3.81787,22.60028 2.86835,31.15176 z"
   id="path8" />
<path
   fill="#1ab2c3"
   opacity="1"
   stroke="none"
   d="m 328.0524,291.14648 c -5.94604,-0.22549 -11.47613,-0.0651 -16.88034,-0.81362 -7.31466,-1.01316 -13.59005,-4.28888 -15.61129,-12.04273 -2.12149,-8.13855 1.31335,-14.28201 9.06945,-18.827 -1.54229,-1.27002 -2.98123,-2.16595 -4.05291,-3.38479 -6.38498,-7.26169 -3.98841,-18.38338 5.16558,-22.57517 10.81797,-4.95376 22.06632,-4.02887 33.23505,-1.19476 0.92786,0.23543 2.05594,2.03403 2.04947,3.10001 -0.0128,2.09095 -0.7597,4.17744 -1.0339,5.46992 -7.98679,-0.30145 -15.52988,-0.62453 -23.07618,-0.82933 -1.12036,-0.0304 -2.27643,0.43111 -3.38043,0.77812 -3.3146,1.04184 -5.53799,2.94496 -5.38409,6.79808 0.15143,3.79111 2.44876,6.03147 5.77472,6.52347 5.73281,0.84808 11.56042,1.05542 17.81662,1.57016 0,2.45572 0,5.1463 0,8.53272 -2.79102,0 -5.57041,-0.13303 -8.33173,0.0335 -3.47815,0.20978 -7.03683,0.28095 -10.38632,1.11371 -3.89154,0.96747 -6.95615,3.19828 -6.98477,7.91388 -0.0293,4.82212 3.18292,6.74668 7.08596,7.7565 8.31061,2.15009 16.52115,0.91172 24.65064,-1.22983 1.56875,-0.41326 3.11142,-0.92565 4.98526,-1.48812 0.95355,2.90713 1.81613,5.53695 3.04043,9.26965 -6.07922,1.2337 -11.67923,2.37015 -17.75122,3.5256 z"
   id="path9" />
<path
   fill="#1bb3c5"
   opacity="1"
   stroke="none"
   d="m 364.28498,240.24524 c -2.78592,0 -5.09122,0 -7.79498,0 0,-3.07495 0,-5.76364 0,-8.73482 8.97091,0 17.73632,0 27.27804,0 0,4.1657 -0.0236,8.26604 0.005,12.36601 0.0645,9.32508 -0.0793,18.65958 0.30191,27.9722 0.36081,8.81467 4.07389,11.52433 12.69934,9.90366 2.59897,-0.48834 5.15442,-1.20847 7.72135,-1.82037 3.11151,8.14148 2.7478,9.14776 -5.53971,10.59997 -4.04498,0.7088 -8.32632,0.8591 -12.40661,0.409 -8.12811,-0.89655 -12.74024,-6.56226 -13.13651,-16.18918 -0.39022,-9.47937 -0.22876,-18.98157 -0.30371,-28.47382 -0.0142,-1.79144 -0.002,-3.5831 -0.002,-6.03265 -3.13318,0 -5.73725,0 -8.82187,0 z"
   id="path10" />
<path
   fill="#1ab0c1"
   opacity="1"
   stroke="none"
   d="m 60.53327,218.5206 c 1.401688,-1.64858 2.554787,-3.04503 3.854736,-4.61931 -0.657394,-0.74902 -1.476227,-1.26576 -1.637199,-1.93965 -0.598831,-2.50702 -2.196556,-5.96733 -1.14608,-7.38303 1.39962,-1.88626 5.142876,-3.30876 7.46627,-2.84787 2.011368,0.399 4.891075,3.75888 4.815636,5.7106 -0.130455,3.37488 -1.911476,6.86268 -3.631599,9.95141 -1.842995,3.30938 -4.415078,6.21276 -6.729119,9.23794 -3.761421,-3.34743 -7.199165,-4.66295 -2.992645,-8.11009 z"
   id="path11" />
<path
   fill="#1ab0c2"
   opacity="1"
   stroke="none"
   d="m 188.97068,212.90073 c 2.6449,-4.0446 5.09195,-7.7851 7.711,-11.78853 2.82122,1.93136 5.26045,3.60121 8.30125,5.6829 -5.01674,6.30547 -9.81541,12.33686 -14.79481,18.5954 -2.25113,-1.56733 -4.11181,-2.86282 -6.39188,-4.4503 1.78661,-2.77702 3.38159,-5.25621 5.17444,-8.03947 z"
   id="path12" />
<path
   fill="#002c37"
   opacity="1"
   stroke="none"
   d="m 263.17136,279.08548 c -6.85971,6.13357 -13.78189,5.17468 -18.03988,-2.45014 -4.27573,-7.65655 -4.66903,-16.13732 -4.85579,-25.02545 9.69719,0 19.09327,0 29.13316,0 0.0115,9.59717 -0.49585,18.88596 -6.23749,27.47559 z"
   id="path13" />
<path
   fill="#002d38"
   opacity="1"
   stroke="none"
   d="m 241.16892,231.32684 c 1.29849,-4.71274 2.23908,-9.12221 3.90939,-13.23539 1.67682,-4.12926 5.14145,-6.61921 9.71088,-6.71149 4.83017,-0.0975 8.17535,2.6517 10.22073,6.7971 3.61152,7.31963 4.55887,15.18207 4.43128,23.65427 -9.61603,0 -19.00159,0 -29.21224,0 0.29918,-3.34062 0.60059,-6.70598 0.93996,-10.50449 z"
   id="path14" />
<path
   fill="#002e39"
   opacity="1"
   stroke="none"
   d="m 78.03768,247.43872 c 0.06396,9.45755 0.277595,18.44504 0.05987,27.42206 -0.04127,1.70178 -1.374458,4.11007 -2.823349,4.92166 -10.394981,5.82278 -20.980354,0.92651 -22.88781,-10.80454 -0.810752,-4.98617 -0.864593,-10.32766 -0.03207,-15.30178 1.893822,-11.31504 12.726227,-17.42096 23.345513,-13.24817 1.416763,0.5567 1.58918,4.28012 2.337837,7.01077 z"
   id="path15" />
<path
   fill="#002e39"
   opacity="1"
   stroke="none"
   d="m 435.02485,278.54547 c -6.41727,-8.28714 -7.48053,-22.25891 -2.5994,-30.88742 4.01035,-7.08917 14.30112,-10.67563 21.67221,-7.26422 1.03082,0.47708 1.82263,2.5708 1.8526,3.93533 0.22968,10.45078 0.32553,20.90708 0.21924,31.35922 -0.0132,1.29767 -1.14517,3.15226 -2.28903,3.77552 -6.24268,3.40133 -12.55692,4.14999 -18.85562,-0.91843 z"
   id="path16" />
</svg>
